<?xml version="1.0" standalone="no"?>
<!DOCTYPE svg PUBLIC "-//W3C//DTD SVG 20010904//EN"
 "http://www.w3.org/TR/2001/REC-SVG-20010904/DTD/svg10.dtd">
<svg version="1.0" xmlns="http://www.w3.org/2000/svg"
 width="319.000000pt" height="268.000000pt" viewBox="0 0 319.000000 268.000000"
 preserveAspectRatio="xMidYMid meet">

<g transform="translate(0.000000,268.000000) scale(0.100000,-0.100000)"
fill="#000000" stroke="none">
<path d="M950 2220 l0 -150 -101 0 c-87 0 -107 -3 -136 -22 -53 -32 -63 -68
-63 -218 l0 -130 -160 0 c-133 0 -162 3 -166 15 -10 26 -69 55 -113 55 -31 0
-48 -7 -73 -29 -29 -26 -33 -35 -33 -81 0 -46 4 -55 33 -81 27 -24 41 -29 83
-29 46 0 55 4 85 35 l33 35 155 0 156 0 0 -115 0 -115 -159 0 c-142 0 -161 2
-173 18 -37 51 -102 66 -158 37 -80 -42 -77 -166 5 -201 64 -27 113 -13 158
43 18 22 24 23 173 23 l154 0 0 -135 0 -135 -159 0 -159 0 -30 29 c-96 96
-247 -10 -190 -134 33 -73 164 -73 212 -1 l16 26 155 0 155 0 0 -110 0 -110
-160 0 c-149 0 -160 1 -170 20 -26 49 -126 66 -172 30 -34 -26 -52 -72 -44
-113 17 -92 147 -121 210 -47 l25 30 155 0 156 0 0 -77 c0 -92 18 -136 69
-170 30 -20 47 -23 132 -23 l99 0 0 -135 0 -135 45 0 45 0 0 135 0 135 100 0
100 0 0 -135 0 -135 45 0 45 0 0 135 0 135 100 0 100 0 0 -136 0 -135 42 3 41
3 2 100 c1 55 3 115 4 133 l1 32 95 0 95 0 0 -135 0 -135 45 0 45 0 0 135 0
135 100 0 100 0 0 -135 0 -135 45 0 45 0 0 135 0 135 90 0 c107 0 147 14 186
65 24 32 28 48 32 121 l5 84 157 0 158 0 35 -35 c30 -30 42 -35 82 -35 40 0
52 5 81 34 39 39 44 77 19 131 -19 38 -51 55 -106 55 -33 0 -48 -7 -76 -35
l-35 -35 -164 0 -165 0 3 108 3 107 161 3 161 2 18 -27 c28 -43 46 -52 97 -53
66 0 108 37 115 100 11 112 -116 170 -197 89 l-28 -29 -165 0 -165 0 1 133 2
132 158 3 158 3 32 -35 c95 -101 246 -10 197 118 -12 32 -65 66 -103 66 -36 0
-83 -25 -97 -50 -10 -19 -21 -20 -180 -20 l-170 0 0 110 0 110 167 2 166 3 33
-32 c27 -28 39 -33 79 -33 40 0 52 5 81 34 28 28 34 42 34 76 0 34 -6 48 -34
76 -30 30 -40 34 -84 34 -46 0 -53 -3 -85 -40 l-34 -41 -159 3 -159 3 -5 146
c-7 208 -26 229 -205 229 l-95 0 0 150 0 150 -45 0 -45 0 0 -150 0 -150 -100
0 -100 0 0 150 0 150 -45 0 -44 0 -3 -147 -3 -148 -97 -3 -98 -3 0 151 0 151
-41 -3 -41 -3 -3 -145 -3 -145 -96 -3 -96 -3 0 151 0 150 -45 0 -45 0 0 -150
0 -150 -100 0 -100 0 0 150 0 150 -45 0 -45 0 0 -150z m1418 -276 l22 -15 0
-683 c0 -375 -3 -685 -6 -689 -3 -3 -18 -1 -33 5 -99 39 -314 92 -420 104 -34
4 -61 8 -61 10 0 2 13 29 29 61 16 32 32 72 36 88 13 61 14 61 75 0 l60 -59 0
41 c0 161 -106 431 -240 608 -33 44 -60 90 -60 102 0 33 62 90 117 106 30 9
42 16 33 20 -8 4 -42 16 -74 28 -41 15 -73 36 -105 69 -73 76 -131 97 -219 80
-100 -19 -145 -77 -163 -212 -15 -112 -38 -168 -115 -284 -118 -180 -169 -313
-181 -474 l-6 -84 39 31 c65 52 111 95 153 146 23 27 41 46 41 43 0 -2 -16
-37 -36 -78 -34 -71 -35 -76 -30 -155 6 -81 6 -83 -16 -83 -43 0 -221 -51
-332 -94 -61 -24 -114 -42 -118 -39 -5 2 -8 314 -8 694 0 676 0 689 20 709 20
20 33 20 798 20 688 0 780 -2 800 -16z m-697 -235 c15 -30 -9 -54 -45 -45 -30
7 -35 40 -8 55 26 16 40 13 53 -10z m-1411 -24 c17 -20 5 -62 -21 -70 -43 -14
-88 42 -57 73 17 17 63 15 78 -3z m2710 0 c17 -21 4 -62 -22 -68 -42 -12 -77
27 -58 64 13 23 62 26 80 4z m-1249 -272 c50 -52 73 -95 104 -188 66 -195 33
-456 -67 -540 -37 -31 -69 -30 -211 7 -68 18 -87 26 -83 38 42 125 46 156 46
345 0 226 11 278 70 337 52 52 92 52 141 1z m-1467 -36 c22 -16 18 -55 -6 -71
-26 -16 -72 4 -76 34 -4 25 20 50 48 50 9 0 24 -6 34 -13z m2716 -1 c15 -19 9
-56 -11 -69 -23 -14 -67 0 -74 24 -14 43 56 79 85 45z m-2712 -358 c19 -19 14
-46 -13 -64 -49 -32 -103 24 -63 64 15 15 61 15 76 0z m2710 0 c19 -19 14 -56
-8 -68 -43 -23 -92 20 -70 60 12 23 59 27 78 8z m-2708 -293 c19 -23 4 -64
-26 -71 -44 -11 -83 43 -52 74 17 17 63 15 78 -3z m2710 0 c17 -20 5 -62 -21
-70 -21 -7 -69 18 -69 36 0 6 5 19 10 30 13 23 62 26 80 4z"/>
<path d="M1557 1184 c-4 -4 -7 -20 -7 -35 0 -28 1 -28 65 -31 l65 -3 -65 -84
c-44 -56 -65 -93 -65 -111 l0 -27 118 -6 c129 -6 144 -1 135 45 -5 26 -9 27
-69 30 l-64 3 66 84 c48 62 64 92 62 110 l-3 26 -116 3 c-63 1 -118 -1 -122
-4z"/>
</g>
</svg>
